<svg width="128" height="128" viewBox="0 0 128 128" fill="none" xmlns="http://www.w3.org/2000/svg">
<path d="M49.0699 32.66C34.6999 30.04 23.3499 32.78 18.8199 40.66C15.4399 46.51 16.4099 54.27 21.1599 62.56C21.2564 62.7281 21.3851 62.8756 21.5386 62.9939C21.6921 63.1123 21.8674 63.1992 22.0546 63.2498C22.2417 63.3005 22.4369 63.3137 22.6291 63.2889C22.8214 63.264 23.0068 63.2015 23.1749 63.105C23.343 63.0085 23.4905 62.8798 23.6088 62.7263C23.7272 62.5728 23.8141 62.3975 23.8647 62.2104C23.9154 62.0233 23.9286 61.828 23.9038 61.6358C23.8789 61.4436 23.8164 61.2581 23.7199 61.09C19.4399 53.62 18.5999 46.92 21.3699 42.09C25.1299 35.58 35.2599 33.09 48.5399 35.55C48.9245 35.6203 49.3212 35.5349 49.6428 35.3127C49.9645 35.0905 50.1846 34.7496 50.2549 34.365C50.3252 33.9805 50.2398 33.5837 50.0176 33.2621C49.7954 32.9405 49.4545 32.7203 49.0699 32.65V32.66ZM28.6299 72.61C35.0373 79.4768 42.4562 85.3243 50.6299 89.95C71.4699 101.95 93.6299 105.2 104.63 97.74C104.952 97.5199 105.174 97.1808 105.246 96.7973C105.318 96.4138 105.235 96.0173 105.015 95.695C104.795 95.3728 104.456 95.1512 104.072 95.079C103.689 95.0068 103.292 95.0899 102.97 95.31C93.1099 102 71.9999 98.92 52.0699 87.39C44.1718 82.9136 37.0026 77.2586 30.8099 70.62C30.5447 70.3309 30.1755 70.1591 29.7836 70.1422C29.3916 70.1253 29.009 70.2648 28.7199 70.53C28.4308 70.7952 28.2589 71.1644 28.2421 71.5564C28.2252 71.9483 28.3647 72.3309 28.6299 72.62V72.61Z" fill="#47848F"/>
<path d="M101.06 70.81C110.47 59.7 113.75 48.52 109.23 40.7C105.91 34.94 98.8796 31.9 89.5396 31.78C89.1484 31.78 88.7732 31.9354 88.4966 32.212C88.22 32.4887 88.0646 32.8638 88.0646 33.255C88.0646 33.6462 88.22 34.0214 88.4966 34.298C88.7732 34.5746 89.1484 34.73 89.5396 34.73C97.9396 34.84 103.99 37.46 106.72 42.18C110.47 48.68 107.54 58.65 98.8496 68.92C98.7248 69.0678 98.6304 69.2386 98.5717 69.4229C98.5129 69.6071 98.4911 69.8011 98.5073 69.9938C98.5236 70.1865 98.5776 70.374 98.6664 70.5458C98.7551 70.7176 98.8768 70.8703 99.0246 70.995C99.1723 71.1198 99.3432 71.2142 99.5274 71.2729C99.7116 71.3317 99.9056 71.3535 100.098 71.3373C100.291 71.321 100.479 71.267 100.65 71.1782C100.822 71.0895 100.975 70.9678 101.1 70.82L101.06 70.81ZM76.8896 33.15C67.6566 35.2453 58.8023 38.7533 50.6396 43.55C29.1296 56 15.0896 74.29 16.9996 87.57C17.0278 87.767 17.0946 87.9565 17.196 88.1277C17.2975 88.2989 17.4317 88.4484 17.5909 88.5677C17.7502 88.687 17.9314 88.7738 18.1242 88.8231C18.317 88.8724 18.5176 88.8833 18.7146 88.855C18.9116 88.8268 19.1011 88.76 19.2722 88.6586C19.4434 88.5571 19.5929 88.4229 19.7123 88.2637C19.8316 88.1044 19.9184 87.9232 19.9677 87.7304C20.017 87.5376 20.0278 87.337 19.9996 87.14C18.2296 75.35 31.5296 58 52.1096 46.11C60.0055 41.453 68.5731 38.0429 77.5096 36C77.6987 35.9593 77.8779 35.8818 78.037 35.7718C78.1962 35.6618 78.3321 35.5216 78.437 35.3591C78.5419 35.1966 78.6138 35.015 78.6486 34.8247C78.6833 34.6344 78.6803 34.4391 78.6396 34.25C78.5989 34.0609 78.5213 33.8817 78.4113 33.7226C78.3014 33.5634 78.1611 33.4275 77.9986 33.3226C77.8361 33.2177 77.6545 33.1458 77.4642 33.111C77.2739 33.0763 77.0787 33.0793 76.8896 33.12V33.15Z" fill="#47848F"/>
<path d="M42 96.7801C47 110.51 55 119 64.05 119C70.65 119 76.75 114.5 81.51 106.58C81.7196 106.247 81.7883 105.845 81.7011 105.461C81.6139 105.078 81.3779 104.745 81.045 104.535C80.7122 104.326 80.3097 104.257 79.9262 104.344C79.5427 104.431 79.2096 104.667 79 105C74.72 112.12 69.47 116 64.06 116C56.54 116 49.37 108.46 44.82 95.7601C44.6874 95.3928 44.4143 95.0931 44.0608 94.9272C43.7073 94.7612 43.3024 94.7425 42.935 94.8751C42.5677 95.0077 42.2681 95.2808 42.1021 95.6343C41.9362 95.9878 41.9174 96.3928 42.05 96.7601L42 96.7801ZM87 94.0901C89.6602 85.2366 90.9782 76.0343 90.91 66.7901C90.91 42.3801 82.37 21.3501 70.2 15.9401C70.0228 15.8613 69.8317 15.8182 69.6377 15.8132C69.4438 15.8083 69.2508 15.8416 69.0697 15.9112C68.8886 15.9809 68.7231 16.0855 68.5824 16.2191C68.4418 16.3528 68.3288 16.5128 68.25 16.6901C68.0909 17.0481 68.0805 17.4547 68.2212 17.8204C68.3618 18.1861 68.642 18.4809 69 18.6401C79.85 23.4601 88 43.4201 88 66.7901C88.0665 75.7361 86.7924 84.6416 84.22 93.2101C84.1623 93.3946 84.1414 93.5887 84.1586 93.7812C84.1758 93.9738 84.2308 94.1611 84.3204 94.3324C84.41 94.5038 84.5325 94.6558 84.6809 94.7797C84.8292 94.9037 85.0005 94.9973 85.185 95.0551C85.3695 95.1129 85.5636 95.1337 85.7562 95.1165C85.9488 95.0993 86.1361 95.0443 86.3074 94.9547C86.4787 94.8651 86.6307 94.7426 86.7547 94.5943C86.8787 94.4459 86.9723 94.2746 87.03 94.0901H87ZM114.71 92.6501C114.71 91.2557 114.297 89.8927 113.522 88.7333C112.747 87.5739 111.646 86.6703 110.358 86.1367C109.07 85.6031 107.652 85.4635 106.285 85.7355C104.917 86.0076 103.661 86.679 102.675 87.665C101.689 88.6509 101.018 89.9071 100.745 91.2747C100.473 92.6423 100.613 94.0598 101.147 95.348C101.68 96.6362 102.584 97.7373 103.743 98.5119C104.903 99.2866 106.266 99.7001 107.66 99.7001C108.586 99.7001 109.503 99.5177 110.358 99.1634C111.213 98.8091 111.99 98.2898 112.645 97.6352C113.3 96.9805 113.819 96.2033 114.173 95.348C114.528 94.4926 114.71 93.5759 114.71 92.6501V92.6501ZM111.76 92.6501C111.76 93.461 111.52 94.2537 111.069 94.9279C110.619 95.6022 109.978 96.1277 109.229 96.438C108.48 96.7483 107.655 96.8295 106.86 96.6713C106.065 96.5131 105.334 96.1226 104.761 95.5492C104.188 94.9758 103.797 94.2453 103.639 93.4499C103.481 92.6546 103.562 91.8303 103.872 91.0811C104.182 90.3319 104.708 89.6916 105.382 89.2411C106.056 88.7905 106.849 88.5501 107.66 88.5501C108.747 88.5501 109.79 88.982 110.559 89.7509C111.328 90.5198 111.76 91.5627 111.76 92.6501V92.6501ZM20.34 99.7001C21.7344 99.7001 23.0974 99.2866 24.2568 98.5119C25.4162 97.7373 26.3198 96.6362 26.8534 95.348C27.387 94.0598 27.5266 92.6423 27.2546 91.2747C26.9825 89.9071 26.3111 88.6509 25.3251 87.665C24.3392 86.679 23.083 86.0076 21.7154 85.7355C20.3479 85.4635 18.9303 85.6031 17.6421 86.1367C16.3539 86.6703 15.2528 87.5739 14.4782 88.7333C13.7035 89.8927 13.29 91.2557 13.29 92.6501C13.29 94.5199 14.0328 96.313 15.3549 97.6352C16.6771 98.9573 18.4703 99.7001 20.34 99.7001V99.7001ZM20.34 96.7501C19.5291 96.7501 18.7364 96.5096 18.0622 96.0591C17.388 95.6086 16.8625 94.9683 16.5521 94.2191C16.2418 93.4699 16.1606 92.6455 16.3188 91.8502C16.477 91.0549 16.8675 90.3243 17.4409 89.7509C18.0143 89.1775 18.7448 88.7871 19.5402 88.6289C20.3355 88.4707 21.1599 88.5518 21.909 88.8622C22.6582 89.1725 23.2986 89.698 23.7491 90.3722C24.1996 91.0465 24.44 91.8392 24.44 92.6501C24.44 93.7375 24.0081 94.7803 23.2392 95.5492C22.4703 96.3181 21.4274 96.7501 20.34 96.7501V96.7501Z" fill="#47848F"/>
<path d="M64.05 23.13C65.4444 23.13 66.8074 22.7166 67.9668 21.9419C69.1261 21.1672 70.0298 20.0662 70.5634 18.778C71.097 17.4897 71.2366 16.0722 70.9645 14.7046C70.6925 13.3371 70.0211 12.0809 69.0351 11.0949C68.0491 10.109 66.793 9.43752 65.4254 9.1655C64.0578 8.89347 62.6403 9.03308 61.3521 9.56668C60.0639 10.1003 58.9628 11.0039 58.1881 12.1633C57.4135 13.3226 57 14.6857 57 16.08C57 17.9498 57.7428 19.743 59.0649 21.0651C60.387 22.3873 62.1802 23.13 64.05 23.13V23.13ZM64.05 20.18C63.2391 20.18 62.4464 19.9396 61.7722 19.4891C61.0979 19.0385 60.5724 18.3982 60.2621 17.649C59.9518 16.8999 59.8706 16.0755 60.0288 15.2802C60.187 14.4848 60.5775 13.7543 61.1509 13.1809C61.7243 12.6075 62.4548 12.217 63.2501 12.0588C64.0455 11.9006 64.8698 11.9818 65.619 12.2921C66.3682 12.6024 67.0085 13.128 67.459 13.8022C67.9095 14.4764 68.15 15.2691 68.15 16.08C68.15 17.1674 67.718 18.2103 66.9491 18.9792C66.1802 19.7481 65.1374 20.18 64.05 20.18V20.18ZM65.13 71.77C64.1444 71.9906 63.1154 71.9135 62.1736 71.5486C61.2318 71.1836 60.4196 70.5473 59.8399 69.7202C59.2603 68.8931 58.9392 67.9125 58.9175 66.9027C58.8958 65.8929 59.1744 64.8994 59.718 64.0482C60.2617 63.1969 61.0458 62.5263 61.971 62.1212C62.8963 61.7161 63.921 61.5949 64.9152 61.7729C65.9094 61.9509 66.8283 62.4202 67.5556 63.1211C68.2828 63.822 68.7855 64.7231 69 65.71C69.2861 67.0265 69.0397 68.4027 68.3146 69.5381C67.5895 70.6735 66.4447 71.4759 65.13 71.77V71.77Z" fill="#47848F"/>
</svg>
