<svg width="128" height="128" viewBox="0 0 128 128" fill="none" xmlns="http://www.w3.org/2000/svg">
<path d="M64.0256 93.6939C96.3856 93.6939 122.62 80.3989 122.62 63.9999C122.62 47.6009 96.3866 34.3059 64.0256 34.3059C31.6646 34.3059 5.43262 47.6009 5.43262 63.9999C5.43262 80.3989 31.6656 93.6939 64.0256 93.6939V93.6939Z" fill="#6181B6"/>
<path d="M75.8956 73.5981L78.8016 58.6401C79.4576 55.2631 78.9116 52.7441 77.1816 51.1541C75.5046 49.6141 72.6586 48.8661 68.4786 48.8661H63.4456L64.8856 41.4541C64.9121 41.3162 64.9078 41.1741 64.8731 41.0381C64.8384 40.902 64.7741 40.7753 64.6848 40.6669C64.5955 40.5585 64.4834 40.4711 64.3565 40.411C64.2296 40.3509 64.091 40.3195 63.9506 40.3191H57.0036C56.7824 40.3192 56.5681 40.3961 56.3973 40.5367C56.2266 40.6774 56.11 40.873 56.0676 41.0901L52.9816 56.9711C52.7016 55.1841 52.0086 53.6481 50.9026 52.3801C48.8646 50.0481 45.6416 48.8651 41.3226 48.8651H27.8556C27.6344 48.8648 27.42 48.9416 27.2494 49.0824C27.0787 49.2231 26.9625 49.4189 26.9206 49.6361L20.6736 81.7801C20.6469 81.918 20.6511 82.06 20.6857 82.1961C20.7203 82.3322 20.7846 82.459 20.874 82.5674C20.9633 82.6757 21.0755 82.763 21.2025 82.8229C21.3295 82.8829 21.4682 82.914 21.6086 82.9141H28.6106C28.8319 82.9142 29.0463 82.8373 29.217 82.6967C29.3878 82.556 29.5043 82.3603 29.5466 82.1431L31.0576 74.3681H36.2706C39.0056 74.3681 41.3026 74.0721 43.0976 73.4871C44.9316 72.8911 46.6196 71.8801 48.1086 70.4861C49.2787 69.4205 50.2771 68.1806 51.0686 66.8101L49.8206 73.2341C49.7934 73.372 49.7971 73.5143 49.8315 73.6506C49.8659 73.787 49.9302 73.914 50.0196 74.0224C50.1091 74.1309 50.2215 74.2182 50.3488 74.278C50.476 74.3378 50.615 74.3685 50.7556 74.3681H57.7026C57.9238 74.368 58.1381 74.2911 58.3089 74.1504C58.4796 74.0098 58.5962 73.8142 58.6386 73.5971L62.0676 55.9521H66.8346C68.8656 55.9521 69.4606 56.3561 69.6216 56.5301C69.7686 56.6891 70.0736 57.2481 69.7316 59.0101L66.9676 73.2331C66.9404 73.371 66.9441 73.5133 66.9785 73.6496C67.0129 73.786 67.0772 73.913 67.1666 74.0214C67.2561 74.1299 67.3685 74.2172 67.4958 74.277C67.623 74.3368 67.762 74.3675 67.9026 74.3671H74.9606C75.1815 74.3675 75.3956 74.2909 75.5663 74.1506C75.7369 74.0103 75.8533 73.8149 75.8956 73.5981ZM43.6876 61.2381C43.2506 63.4801 42.4286 65.0801 41.2436 65.9931C40.0386 66.9201 38.1116 67.3901 35.5166 67.3901H32.4126L34.6566 55.8421H38.6686C41.6166 55.8421 42.8046 56.4721 43.2806 57.0001C43.9426 57.7341 44.0826 59.1991 43.6876 61.2381V61.2381ZM105.604 52.3801C103.566 50.0481 100.343 48.8651 96.0226 48.8651H82.5586C82.3373 48.8648 82.1228 48.9416 81.952 49.0823C81.7811 49.223 81.6647 49.4188 81.6226 49.6361L75.3746 81.7801C75.3479 81.918 75.3521 82.06 75.3867 82.1961C75.4213 82.3322 75.4856 82.459 75.575 82.5674C75.6643 82.6757 75.7765 82.763 75.9035 82.8229C76.0305 82.8829 76.1692 82.914 76.3096 82.9141H83.3126C83.5337 82.914 83.7479 82.837 83.9184 82.6964C84.089 82.5557 84.2054 82.3601 84.2476 82.1431L85.7596 74.3681H90.9716C93.7066 74.3681 96.0046 74.0721 97.7986 73.4871C99.6336 72.8911 101.321 71.8801 102.81 70.4861C104.051 69.3451 105.074 68.0651 105.847 66.6801C106.637 65.2481 107.194 63.6993 107.497 62.0921C108.294 57.9981 107.657 54.7291 105.604 52.3801V52.3801ZM98.3416 61.2381C97.9046 63.4801 97.0826 65.0801 95.8976 65.9931C94.6936 66.9201 92.7666 67.3901 90.1706 67.3901H87.0666L89.3116 55.8421H93.3236C96.2716 55.8421 97.4596 56.4721 97.9356 57.0001C98.5976 57.7341 98.7366 59.1991 98.3416 61.2381Z" fill="white"/>
<path d="M38.6704 54.89C41.3304 54.89 43.1044 55.381 43.9904 56.364C44.8754 57.346 45.0874 59.032 44.6234 61.421C44.1394 63.909 43.2074 65.685 41.8254 66.749C40.4434 67.812 38.3404 68.344 35.5174 68.344H31.2574L33.8714 54.891H38.6704V54.89V54.89ZM21.6094 81.962H28.6114L30.2724 73.416H36.2704C38.9164 73.416 41.0934 73.139 42.8024 72.582C44.5114 72.026 46.0654 71.094 47.4634 69.785C48.5976 68.7549 49.5597 67.55 50.3134 66.216C51.0404 64.916 51.5554 63.482 51.8604 61.911C52.6014 58.1 52.0424 55.133 50.1844 53.007C48.3264 50.881 45.3724 49.818 41.3224 49.818H27.8564L21.6094 81.962V81.962ZM57.0034 41.271H63.9504L62.2894 49.817H68.4784C72.3724 49.817 75.0584 50.497 76.5374 51.854C78.0164 53.213 78.4584 55.415 77.8674 58.457L74.9614 73.416H67.9034L70.6664 59.193C70.9804 57.575 70.8654 56.471 70.3194 55.882C69.7734 55.295 68.6114 55 66.8344 55H61.2814L57.7034 73.416H50.7564L57.0034 41.271V41.271ZM93.3244 54.89C95.9844 54.89 97.7584 55.381 98.6434 56.364C99.5304 57.346 99.7404 59.032 99.2774 61.421C98.7934 63.909 97.8604 65.685 96.4784 66.749C95.0964 67.812 92.9944 68.344 90.1704 68.344H85.9114L88.5254 54.891H93.3244V54.89V54.89ZM76.2644 81.962H83.2664L84.9274 73.416H90.9244C93.5704 73.416 95.7474 73.139 97.4564 72.582C99.1664 72.026 100.72 71.094 102.117 69.785C103.252 68.7552 104.215 67.5503 104.968 66.216C105.694 64.916 106.21 63.482 106.515 61.911C107.255 58.1 106.697 55.133 104.839 53.007C102.981 50.881 100.027 49.818 95.9764 49.818H82.5114L76.2644 81.962V81.962Z" fill="#000004"/>
</svg>
